<svg width="1008" height="436" viewBox="0 0 1008 436" fill="none" xmlns="http://www.w3.org/2000/svg">
<path d="M507.435 238.303C508.503 245.134 511.74 250.827 517.149 255.381C522.628 259.865 529.958 262.106 539.137 262.106C546.325 262.106 552.551 261.003 557.817 258.797C563.154 256.52 567.744 253.531 571.587 249.831L582.901 265.415C576.497 271.82 569.701 276.196 562.514 278.544C555.398 280.893 547.606 282.067 539.137 282.067C531.452 282.067 524.3 280.786 517.682 278.224C511.064 275.662 505.336 272.104 500.497 267.55C495.658 262.925 491.851 257.445 489.076 251.112C486.372 244.778 485.019 237.734 485.019 229.977C485.019 222.434 486.265 215.496 488.755 209.162C491.317 202.758 494.875 197.243 499.43 192.617C504.055 187.921 509.57 184.292 515.975 181.73C522.379 179.097 529.46 177.78 537.216 177.78C545.257 177.78 552.551 179.168 559.098 181.943C565.645 184.647 571.231 188.597 575.857 193.792C580.553 198.986 584.218 205.355 586.851 212.898C589.484 220.37 590.8 228.838 590.8 238.303H507.435ZM565.823 218.876C564.684 212.471 561.375 207.348 555.896 203.505C550.416 199.591 544.19 197.634 537.216 197.634C530.242 197.634 523.98 199.591 518.43 203.505C512.879 207.348 509.534 212.471 508.396 218.876H565.823ZM670.502 279.612H603.682V259.758H625.457V160.275H603.682V140.314H647.553V259.758H670.502V279.612ZM781.108 249.831C781.108 256.307 779.649 261.572 776.731 265.629C773.814 269.685 770.042 272.958 765.417 275.449C760.862 277.94 755.739 279.647 750.046 280.572C744.424 281.569 738.909 282.067 733.501 282.067C724.464 282.067 715.462 280.75 706.495 278.117C697.529 275.484 689.773 272.033 683.226 267.764L692.406 249.617C700.233 254.172 707.385 257.41 713.861 259.331C720.407 261.181 726.954 262.106 733.501 262.106C742.396 262.106 748.872 261.181 752.928 259.331C756.984 257.41 759.012 254.777 759.012 251.432C759.012 249.795 758.443 248.443 757.304 247.376C756.166 246.308 754.28 245.348 751.647 244.494C749.014 243.569 745.527 242.679 741.186 241.825C736.917 240.9 731.58 239.94 725.175 238.943C720.052 238.089 715.177 237.058 710.552 235.848C705.997 234.567 701.977 232.788 698.49 230.511C695.003 228.234 692.192 225.352 690.057 221.865C687.994 218.378 686.962 214.001 686.962 208.735C686.962 203.398 688.314 198.773 691.018 194.859C693.793 190.874 697.387 187.601 701.799 185.039C706.282 182.477 711.299 180.627 716.849 179.488C722.4 178.35 727.95 177.78 733.501 177.78C741.329 177.78 748.907 178.812 756.237 180.876C763.638 182.868 770.113 185.75 775.664 189.522L766.911 206.601C761.361 203.114 755.952 200.765 750.686 199.556C745.492 198.275 739.763 197.634 733.501 197.634C730.868 197.634 728.128 197.777 725.282 198.061C722.435 198.346 719.803 198.915 717.383 199.769C714.964 200.552 712.935 201.655 711.299 203.078C709.733 204.43 708.95 206.102 708.95 208.095C708.95 210.728 711.263 212.898 715.889 214.606C720.585 216.243 728.555 217.88 739.799 219.516C745.919 220.37 751.505 221.473 756.557 222.825C761.61 224.106 765.95 225.885 769.58 228.162C773.209 230.368 776.02 233.25 778.012 236.808C780.076 240.295 781.108 244.636 781.108 249.831ZM796.645 251.005C796.645 245.17 798.211 240.082 801.342 235.741C804.473 231.329 808.565 227.664 813.617 224.747C818.741 221.829 824.576 219.659 831.123 218.235C837.741 216.741 844.465 215.994 851.297 215.994C855.068 215.994 858.306 216.065 861.01 216.207C863.714 216.35 866.454 216.563 869.229 216.848V212.898C869.229 207.704 867.201 203.825 863.145 201.264C859.16 198.702 853.894 197.421 847.347 197.421C841.37 197.421 835.286 198.275 829.094 199.983C822.903 201.619 817.033 204.039 811.482 207.241L802.516 189.949C809.063 186.177 816.072 183.224 823.544 181.089C831.087 178.883 839.021 177.78 847.347 177.78C852.756 177.78 858.057 178.385 863.252 179.595C868.518 180.805 873.214 182.797 877.342 185.572C881.54 188.348 884.885 191.977 887.375 196.46C889.866 200.872 891.111 206.352 891.111 212.898V279.612H869.229V264.988C865.742 270.396 860.583 274.595 853.752 277.584C846.991 280.572 839.697 282.067 831.87 282.067C827.031 282.067 822.441 281.391 818.1 280.039C813.83 278.758 810.13 276.801 806.999 274.168C803.868 271.535 801.342 268.297 799.42 264.455C797.57 260.541 796.645 256.058 796.645 251.005ZM837.527 262.32C841.868 262.32 845.924 261.786 849.696 260.719C853.538 259.58 856.918 258.05 859.836 256.129C862.754 254.136 865.031 251.752 866.668 248.977C868.375 246.202 869.229 243.142 869.229 239.797V236.061C865.742 235.492 862.469 235.172 859.409 235.101C856.349 235.029 853.645 234.994 851.297 234.994C840.48 234.994 832.297 236.417 826.746 239.264C821.267 242.11 818.527 245.632 818.527 249.831C818.527 258.157 824.86 262.32 837.527 262.32Z" fill="black"/>
<g clip-path="url(#clip0_2023_1860)">
<path d="M429.626 223.998C429.626 246.145 420.443 266.307 405.711 277.674C406.115 276.114 406.458 274.533 406.801 272.912V272.872C406.962 272.082 407.104 271.271 407.245 270.46C407.386 269.63 407.528 268.799 407.649 267.968C407.77 267.137 407.891 266.286 407.992 265.435C408.093 264.746 408.173 264.078 408.234 263.368C408.335 262.517 408.415 261.666 408.476 260.775C408.577 259.721 408.637 258.647 408.698 257.553C408.759 256.317 408.819 255.162 408.859 254.048C408.9 252.953 408.92 251.9 408.92 250.907V249.205C408.96 245.476 409.001 239.621 408.678 232.306C408.637 231.617 408.617 230.908 408.577 230.178C408.537 229.449 408.496 228.719 408.456 227.969C408.375 226.673 408.294 225.335 408.173 223.978C408.133 223.471 408.093 222.964 408.052 222.438C407.951 221.262 407.85 220.047 407.729 218.811C407.467 216.136 407.164 213.38 406.781 210.564C406.539 208.801 406.276 207.018 405.994 205.194C405.57 202.418 405.065 199.601 404.48 196.724C404.278 195.772 404.077 194.799 403.875 193.827C403.653 192.793 403.431 191.74 403.189 190.706C402.987 189.896 402.785 189.065 402.583 188.234C402.341 187.16 402.058 186.086 401.756 185.012C401.493 184.019 401.231 183.027 400.949 182.034C400.605 180.757 400.222 179.46 399.798 178.163C399.596 177.454 399.374 176.745 399.132 176.036C398.809 175.023 398.486 174.03 398.143 173.017C397.8 172.024 397.437 171.011 397.074 169.998C396.388 168.052 395.641 166.107 394.834 164.162C394.813 164.101 394.793 164.04 394.753 163.979C415.297 172.226 429.626 196.319 429.626 223.998Z" fill="#090000"/>
<path d="M127.496 163.027C126.992 164.122 126.487 165.216 126.003 166.31C125.014 168.498 124.086 170.687 123.258 172.875C122.875 173.827 122.511 174.78 122.148 175.732C122.027 176.016 121.926 176.32 121.825 176.603C121.482 177.535 121.139 178.488 120.816 179.42C120.433 180.514 120.07 181.608 119.706 182.702C118.616 185.965 117.648 189.187 116.8 192.388C116.497 193.442 116.215 194.516 115.953 195.569C115.69 196.623 115.428 197.677 115.186 198.71C114.923 199.764 114.681 200.797 114.459 201.831C114.136 203.208 113.854 204.586 113.591 205.944C113.511 206.248 113.45 206.552 113.41 206.856C113.127 208.213 112.885 209.571 112.643 210.908C112.3 212.874 111.977 214.819 111.694 216.703C110.685 223.329 110.06 229.449 109.676 234.839C109.555 236.217 109.474 237.554 109.414 238.851C109.394 238.992 109.394 239.134 109.394 239.276C109.353 239.864 109.333 240.431 109.313 240.978C109.273 241.89 109.232 242.761 109.212 243.592C109.172 244.95 109.131 246.226 109.131 247.402C109.091 248.617 109.091 249.732 109.091 250.745C109.091 251.758 109.091 252.832 109.152 253.967C109.172 254.514 109.192 255.101 109.212 255.689C109.212 256.297 109.273 256.905 109.293 257.553C109.374 259.073 109.495 260.572 109.636 262.052C109.676 262.497 109.717 262.943 109.777 263.389C109.858 264.26 109.959 265.111 110.08 265.942C110.322 267.867 110.605 269.772 110.968 271.616C111.109 272.365 111.25 273.095 111.412 273.824C111.553 274.554 111.715 275.283 111.896 275.992C98.3749 264.341 89.9998 244.869 89.9998 223.998C89.9998 195.144 105.741 170.18 127.496 163.027Z" fill="#090000"/>
<path d="M402.847 249.144V250.887C402.826 252.791 402.766 254.838 402.625 257.208C402.524 259.073 402.382 260.917 402.201 262.7C401.636 268.069 400.707 273.074 399.375 277.877C399.295 278.14 399.214 278.424 399.133 278.687C399.032 279.133 398.891 279.579 398.73 280.004C398.528 280.673 398.286 281.362 398.043 282.01C397.983 282.172 397.943 282.314 397.882 282.456C397.721 282.861 397.579 283.266 397.418 283.651C394.835 290.196 390.94 296.356 385.753 302.05C348.156 347.175 260.045 346.041 259.178 345.98H258.855C257.987 346.041 169.836 347.155 132.158 301.949C126.81 296.073 122.774 289.548 120.171 282.557C119.585 281.017 119.081 279.457 118.637 277.877C117.527 273.885 116.699 269.751 116.114 265.374C115.771 262.761 115.529 260.045 115.367 257.229C115.246 254.757 115.186 252.71 115.186 250.724C115.145 241.059 115.892 221.769 121.139 199.824C121.664 197.697 122.209 195.529 122.814 193.34C124.328 187.849 126.124 182.277 128.263 176.684C129.131 174.435 130.039 172.186 131.008 169.957C131.997 167.708 133.026 165.499 134.095 163.27C134.661 162.156 135.205 161.062 135.791 159.947C160.068 113.525 202.893 90 263.073 90C323.252 90 364.886 113.687 386.54 160.393C390.354 168.579 393.261 176.968 395.521 185.174C403.149 213.117 402.927 239.073 402.847 249.144Z" fill="#090000"/>
<path d="M116.114 265.374C116.679 269.751 117.507 273.885 118.616 277.876H118.637C117.527 273.885 116.699 269.751 116.114 265.374ZM115.973 232.062C116.013 231.657 116.053 231.272 116.094 230.846C116.134 230.32 116.195 229.772 116.235 229.246C116.134 230.218 116.053 231.15 115.973 232.062ZM115.226 245.881C115.287 242.984 115.428 239.58 115.69 235.79C115.388 239.843 115.266 243.45 115.206 246.489V246.996C115.166 248.353 115.166 249.61 115.166 250.724C115.166 252.71 115.226 254.756 115.367 257.229C115.246 254.756 115.186 252.71 115.186 250.724C115.186 249.812 115.186 248.84 115.206 247.766C115.206 247.158 115.226 246.53 115.226 245.881ZM115.206 246.489V247.766C115.206 247.158 115.226 246.53 115.226 245.881C115.226 246.084 115.226 246.287 115.206 246.489Z" fill="white"/>
<path d="M194.931 211.07C184.033 212.144 172.146 212.023 159.19 210.949H159.109C154.811 210.361 150.795 213.218 149.887 217.493C146.557 233.278 143.187 249.103 143.227 264.361C143.227 266.084 143.287 267.786 143.388 269.488C143.711 275.04 144.519 280.511 146.052 285.86C148.232 293.418 152.167 299.862 157.333 305.353C187.544 340.509 256.241 340.164 259.692 339.982C263.143 340.164 331.839 340.509 362.05 305.353C367.196 299.862 371.151 293.418 373.331 285.86C374.865 280.511 375.672 275.02 375.995 269.468C376.096 267.806 376.156 266.144 376.156 264.483C376.217 249.205 372.847 233.339 369.497 217.514C368.588 213.259 364.593 210.402 360.274 210.969H360.193C347.237 212.043 335.35 212.164 324.453 211.09C313.333 209.449 299.67 202.398 287.743 194.921C270.529 184.161 248.814 184.161 231.6 194.921C219.673 202.377 206.01 209.429 194.89 211.07H194.931Z" fill="white"/>
<path d="M195.163 272.081C203.962 272.081 211.106 264.928 211.106 256.074C211.106 247.219 203.962 240.066 195.163 240.066C186.364 240.066 179.22 247.219 179.22 256.074C179.22 264.928 186.364 272.081 195.163 272.081Z" fill="#090000"/>
<path d="M323.433 272.081C332.232 272.081 339.376 264.928 339.376 256.074C339.376 247.219 332.232 240.066 323.433 240.066C314.634 240.066 307.49 247.219 307.49 256.074C307.49 264.928 314.634 272.081 323.433 272.081Z" fill="#090000"/>
<path d="M238.149 289.163L279.621 289.062C279.621 289.062 282.648 315.687 257.381 314.998C234.94 314.37 238.169 289.163 238.169 289.163H238.149Z" fill="#090000"/>
<circle cx="258.269" cy="146.025" r="28.764" fill="white"/>
<circle cx="258.269" cy="146.024" r="20.1348" fill="#090000"/>
<circle cx="258.269" cy="146.025" r="11.5056" fill="white"/>
</g>
<defs>
<clipPath id="clip0_2023_1860">
<rect width="339.627" height="256" fill="white" transform="translate(89.9998 90)"/>
</clipPath>
</defs>
</svg>
